<?xml version="1.0" encoding="utf-8"?>
<!-- Generator: Adobe Illustrator 27.2.0, SVG Export Plug-In . SVG Version: 6.00 Build 0)  -->
<svg version="1.1" id="Layer_1" xmlns="http://www.w3.org/2000/svg" xmlns:xlink="http://www.w3.org/1999/xlink" x="0px" y="0px"
	 viewBox="0 0 16 16" style="enable-background:new 0 0 16 16;" xml:space="preserve">
<style type="text/css">
	.st0{fill:#FFFFFF;}
	.st1{fill:#101820;}
</style>
<g>
	<path id="XMLID_00000183209616841772516630000008942685415395113600_" class="st0" d="M15.02,4.33L8.71,1.42
		C8.49,1.32,8.25,1.27,8,1.27S7.51,1.32,7.29,1.42L0.98,4.33C0.63,4.5,0.4,4.86,0.4,5.25v5.51c0,0.39,0.23,0.75,0.58,0.91l6.31,2.91
		c0.23,0.1,0.46,0.16,0.71,0.16c0.25,0,0.49-0.05,0.71-0.16l6.31-2.91c0.35-0.16,0.58-0.52,0.58-0.91V5.25
		C15.6,4.86,15.37,4.5,15.02,4.33z"/>
	<path id="XMLID_00000033370878098685973710000008300347091967681970_" class="st1" d="M15.3,4.22L8.73,1.17
		c-0.47-0.22-1-0.22-1.47,0L0.7,4.22C0.34,4.39,0.1,4.76,0.1,5.16v5.67c0,0.41,0.24,0.78,0.6,0.95l6.56,3.05
		c0.47,0.22,1,0.22,1.47,0l6.56-3.05c0.37-0.17,0.6-0.54,0.6-0.95V5.16C15.9,4.76,15.66,4.39,15.3,4.22z M15.29,10.75
		c0,0.27-0.16,0.52-0.4,0.63L8.58,14.3c-0.37,0.17-0.8,0.17-1.17,0l-6.31-2.91c-0.25-0.11-0.4-0.36-0.4-0.63V5.25
		c0-0.27,0.16-0.52,0.4-0.63L7.42,1.7c0.37-0.17,0.8-0.17,1.17,0l6.31,2.91c0.25,0.11,0.4,0.36,0.4,0.63V10.75z M12.92,10.36
		l1.41-3.71v3.72c0,0.16-0.09,0.31-0.24,0.38l-5.6,2.59c-0.3,0.14-0.66,0.14-0.96,0l-5.61-2.6c-0.15-0.07-0.24-0.22-0.24-0.38v-0.01
		c1.26,0,3.95,0,3.95,0c1.63,0,2.09-1.71,1.51-2.38c0.47-0.2,0.8-0.67,0.8-1.21c0-0.73-0.59-1.33-1.32-1.33H2.93l-0.42,1.1
		c0,0,3.26,0,3.27,0c0.17,0,0.3,0.14,0.3,0.3c0,0.17-0.14,0.3-0.3,0.3c-0.01,0-2.63,0-2.63,0L2.68,8.46c0,0,2.34,0,2.35,0
		c0.17,0,0.3,0.14,0.3,0.3c0,0.17-0.14,0.3-0.3,0.3c-0.01,0-2.71,0-3.35,0V5.63c0-0.16,0.09-0.31,0.24-0.38l5.61-2.59
		c0.3-0.14,0.66-0.14,0.96,0l5.6,2.59c0.08,0.04,0.15,0.1,0.19,0.18h-1.84l-0.7,1.84h-1.18l0.7-1.84H8.46l2.03,1.01H8.52l-1.49,3.92
		h2.35l0.7-1.84h1.18l-0.7,1.84H12.92z"/>
</g>
</svg>
