<?xml version="1.0" encoding="UTF-8"?>
<svg id="Layer_1" data-name="Layer 1" xmlns="http://www.w3.org/2000/svg" viewBox="0 0 16 16">
  <defs>
    <style>
      .cls-1 {
        fill: #fff;
      }
    </style>
  </defs>
  <path class="cls-1" d="m15.43,4.27c-.18-.67-.7-1.19-1.37-1.37-1.21-.32-6.06-.32-6.06-.32,0,0-4.85,0-6.06.32-.67.18-1.19.7-1.37,1.37-.32,1.21-.32,3.73-.32,3.73,0,0,0,2.52.32,3.73.18.67.7,1.19,1.37,1.37,1.21.32,6.06.32,6.06.32,0,0,4.85,0,6.06-.32.67-.18,1.19-.7,1.37-1.37.32-1.21.32-3.73.32-3.73,0,0,0-2.52-.32-3.73Zm-8.98,6.06v-4.65l4.03,2.33-4.03,2.32Z"/>
</svg>