<?xml version="1.0" encoding="UTF-8"?>
<svg id="Layer_1" data-name="Layer 1" xmlns="http://www.w3.org/2000/svg" viewBox="0 0 16 16">
  <defs>
    <style>
      .cls-1 {
        fill: #fff;
      }
    </style>
  </defs>
  <path class="cls-1" d="m4.79.3c-.82.04-1.39.17-1.88.36-.51.2-.94.46-1.37.9-.43.43-.69.86-.89,1.37-.19.49-.32,1.06-.36,1.88-.04.83-.04,1.09-.04,3.19,0,2.1.01,2.37.05,3.2.04.82.17,1.39.36,1.88.2.51.46.94.9,1.37.43.43.86.69,1.37.89.49.19,1.06.32,1.88.36.83.04,1.09.04,3.19.04,2.1,0,2.37-.01,3.2-.05.82-.04,1.39-.17,1.88-.36.51-.2.94-.46,1.37-.9.43-.43.69-.86.89-1.37.19-.49.32-1.06.36-1.88.04-.83.04-1.09.04-3.2,0-2.1-.01-2.37-.05-3.19-.04-.83-.17-1.39-.36-1.88-.2-.51-.46-.94-.9-1.37-.43-.43-.86-.69-1.37-.89-.49-.19-1.06-.32-1.88-.36-.83-.04-1.09-.04-3.2-.04-2.1,0-2.37.01-3.19.05m.09,14.01c-.76-.03-1.17-.16-1.44-.26-.36-.14-.62-.31-.89-.58-.27-.27-.44-.53-.58-.89-.11-.27-.23-.68-.27-1.44-.04-.82-.05-1.06-.05-3.13,0-2.07,0-2.31.04-3.13.03-.76.16-1.17.26-1.44.14-.36.31-.62.58-.89.27-.27.53-.44.89-.58.27-.11.68-.23,1.44-.27.82-.04,1.06-.05,3.13-.05,2.07,0,2.31,0,3.13.04.76.03,1.17.16,1.44.26.36.14.62.31.89.58.27.27.44.53.58.89.11.27.23.68.27,1.44.04.82.05,1.06.05,3.13,0,2.07,0,2.31-.04,3.13-.03.76-.16,1.17-.26,1.44-.14.36-.31.62-.58.89-.27.27-.53.44-.89.58-.27.11-.68.23-1.44.27-.82.04-1.06.05-3.13.05-2.07,0-2.31,0-3.13-.04M11.2,3.86c0,.51.42.93.93.93.51,0,.93-.42.93-.93,0-.51-.42-.93-.93-.93s-.93.42-.93.93m-7.18,4.15c0,2.2,1.79,3.98,3.99,3.97,2.2,0,3.98-1.79,3.97-3.99,0-2.2-1.79-3.98-3.99-3.97-2.2,0-3.98,1.79-3.97,3.99m1.4,0c0-1.43,1.15-2.59,2.58-2.59,1.43,0,2.59,1.15,2.59,2.58,0,1.43-1.15,2.59-2.58,2.59-1.43,0-2.59-1.15-2.59-2.58"/>
</svg>