<?xml version="1.0" encoding="UTF-8"?>
<svg id="Layer_1" data-name="Layer 1" xmlns="http://www.w3.org/2000/svg" viewBox="0 0 16 16">
  <defs>
    <style>
      .cls-1 {
        fill: #101820;
      }
    </style>
  </defs>
  <path class="cls-1" d="m6.62,13c-1.7,0-3.3-.66-4.51-1.87S.25,8.33.25,6.62s.66-3.3,1.87-4.51C3.32.91,4.92.25,6.62.25s3.3.66,4.51,1.87h0c1.2,1.2,1.87,2.8,1.87,4.51s-.66,3.3-1.87,4.51c-1.2,1.2-2.8,1.87-4.51,1.87Zm0-11.62c-1.4,0-2.72.55-3.71,1.54-.99.99-1.54,2.31-1.54,3.71s.55,2.72,1.54,3.71,2.31,1.54,3.71,1.54,2.72-.55,3.71-1.54,1.54-2.31,1.54-3.71-.55-2.72-1.54-3.71h0c-.99-.99-2.31-1.54-3.71-1.54Z"/>
  <rect class="cls-1" x="13.18" y="11.47" width="1.12" height="4.55" transform="translate(-5.69 13.74) rotate(-45)"/>
</svg>