<?xml version="1.0" encoding="UTF-8"?>
<svg id="Layer_1" data-name="Layer 1" xmlns="http://www.w3.org/2000/svg" viewBox="0 0 16 16">
  <defs>
    <style>
      .cls-1 {
        fill: #fff;
      }
    </style>
  </defs>
  <path class="cls-1" d="m14.6.25H1.4C.78.25.25.74.25,1.37v13.27c0,.62.51,1.12,1.15,1.12h13.2c.64,0,1.15-.51,1.15-1.12V1.37c0-.61-.51-1.12-1.15-1.12ZM4.85,13.45h-2.3v-7.39h2.3v7.39Zm-1.15-8.41c-.74,0-1.33-.59-1.33-1.33s.59-1.33,1.33-1.33,1.33.59,1.33,1.33-.59,1.33-1.33,1.33Zm9.75,8.42h-2.3v-3.6c0-.85-.02-1.95-1.2-1.95s-1.38.94-1.38,1.9v3.66h-2.3v-7.42h2.22v1.02h.03c.31-.57,1.05-1.2,2.17-1.2,2.33,0,2.76,1.53,2.76,3.53v4.06Z"/>
</svg>