<?xml version="1.0" encoding="utf-8"?>
<!-- Generator: Adobe Illustrator 27.3.1, SVG Export Plug-In . SVG Version: 6.00 Build 0)  -->
<svg version="1.1" xmlns="http://www.w3.org/2000/svg" xmlns:xlink="http://www.w3.org/1999/xlink" x="0px" y="0px"
	 viewBox="0 0 1440 289.56" style="enable-background:new 0 0 1440 289.56;" xml:space="preserve">
<style type="text/css">
	.st0{clip-path:url(#SVGID_00000176025790339142625730000007215603588029611908_);}
	.st1{fill:#FF5F00;}
	.st2{fill:#191E25;}
</style>
<g id="IMAGINES-GRAFICOS">
	<g>
		<defs>
			<rect id="SVGID_1_" width="1440" height="289.56"/>
		</defs>
		<clipPath id="SVGID_00000095340070499191522280000000071811267757680801_">
			<use xlink:href="#SVGID_1_"  style="overflow:visible;"/>
		</clipPath>
		<g style="clip-path:url(#SVGID_00000095340070499191522280000000071811267757680801_);">
			<path id="XMLID_00000049929621263245561860000018069160016109101971_" class="st1" d="M1243.62,530.73
				c0,12.41-6.95,23.7-17.8,28.9L948.51,692.67c-16.3,7.82-35.09,7.82-51.39,0L619.8,559.63c-10.85-5.2-17.8-16.49-17.8-28.9V279.06
				c0-12.41,6.95-23.7,17.8-28.9l277.32-133.04c16.3-7.82,35.09-7.82,51.39,0l277.32,133.04c10.85,5.2,17.8,16.49,17.8,28.9V530.73z
				"/>
			<g>
				<path id="XMLID_00000074439818433454164340000009469040973571221639_" class="st2" d="M1000.93,709.22
					c0,20.5-11.37,39.14-29.13,47.73L517.87,976.68c-26.68,12.92-57.43,12.92-84.12,0L-20.17,756.96
					c-17.76-8.6-29.13-27.23-29.13-47.73V293.58c0-20.5,11.37-39.14,29.13-47.73L433.75,26.12c26.68-12.92,57.43-12.92,84.12,0
					L971.8,245.85c17.76,8.6,29.13,27.23,29.13,47.73V709.22z"/>
			</g>
		</g>
	</g>
</g>
<g id="PIE_DE_PAG">
</g>
</svg>
