<?xml version="1.0" encoding="utf-8"?>
<!-- Generator: Adobe Illustrator 27.4.0, SVG Export Plug-In . SVG Version: 6.00 Build 0)  -->
<svg version="1.1" id="Layer_1" xmlns="http://www.w3.org/2000/svg" xmlns:xlink="http://www.w3.org/1999/xlink" x="0px" y="0px"
	 viewBox="0 0 80 80" style="enable-background:new 0 0 80 80;" xml:space="preserve">
<style type="text/css">
	.st0{fill:#FFFFFF;}
	.st1{fill:#101820;}
</style>
<g>
	<path id="XMLID_00000183209616841772516630000008942685415395113600_" class="st0" d="M74.65,21.91L43.52,7.53
		c-1.11-0.51-2.3-0.77-3.52-0.77s-2.41,0.26-3.52,0.77L5.35,21.91c-1.75,0.81-2.88,2.57-2.88,4.5V53.6c0,1.93,1.13,3.69,2.88,4.5
		l31.13,14.37c1.11,0.51,2.3,0.77,3.52,0.77s2.41-0.26,3.52-0.77L74.65,58.1c1.75-0.81,2.88-2.57,2.88-4.5V26.4
		C77.52,24.48,76.39,22.71,74.65,21.91z"/>
	<path id="XMLID_00000033370878098685973710000008300347091967681970_" class="st1" d="M76.02,21.32L43.62,6.27
		c-2.3-1.07-4.95-1.07-7.25,0L3.98,21.32C2.16,22.17,1,23.99,1,26v28c0,2.01,1.16,3.83,2.98,4.68l32.39,15.05
		c2.3,1.07,4.95,1.07,7.25,0l32.39-15.05C77.84,57.83,79,56.01,79,54V26C79,23.99,77.84,22.17,76.02,21.32z M76.01,53.6
		c0,1.34-0.78,2.56-2,3.12L42.88,71.09c-1.83,0.84-3.94,0.84-5.77,0L5.99,56.72c-1.22-0.56-2-1.78-2-3.12V26.4
		c0-1.34,0.78-2.56,2-3.12L37.12,8.91c1.83-0.84,3.94-0.84,5.77,0l31.13,14.37c1.22,0.56,2,1.78,2,3.12L76.01,53.6L76.01,53.6z
		 M64.28,51.64l6.94-18.31V51.7c0,0.8-0.46,1.52-1.17,1.86L42.37,66.38c-1.5,0.72-3.24,0.72-4.74,0L9.94,53.57
		c-0.72-0.34-1.18-1.07-1.18-1.86v-0.06c6.2,0,19.49,0,19.5,0c8.05,0,10.31-8.46,7.45-11.75c2.33-0.99,3.96-3.3,3.96-5.99
		c0-3.59-2.93-6.55-6.52-6.55H14.99l-2.05,5.41c0,0,16.12,0,16.16,0c0.83,0,1.5,0.67,1.5,1.5s-0.67,1.5-1.5,1.5
		c-0.05,0-12.96,0-12.96,0l-2.42,6.48c0,0,11.55,0,11.6,0c0.83,0,1.5,0.67,1.5,1.5s-0.67,1.5-1.5,1.5c-0.04,0-13.35,0-16.55,0V28.3
		c0-0.8,0.46-1.52,1.18-1.86l27.69-12.8c1.5-0.71,3.24-0.71,4.74,0l27.67,12.79c0.41,0.19,0.73,0.51,0.93,0.89h-9.1l-3.44,9.1h-5.81
		l3.44-9.1H42.26l10.03,4.98h-9.72l-7.34,19.33h11.62l3.44-9.07h5.82l-3.45,9.07h11.62V51.64z"/>
</g>
</svg>
